<?xml version="1.0" encoding="iso-8859-1"?>
<!DOCTYPE svg PUBLIC "-//W3C//DTD SVG 1.1//EN" "http://www.w3.org/Graphics/SVG/1.1/DTD/svg11.dtd">
<svg version="1.1" xmlns="http://www.w3.org/2000/svg" xmlns:xlink="http://www.w3.org/1999/xlink" x="0px" y="0px"
width="388px" height="500.81500244140625px" viewBox="0 0 388 500.81500244140625" xml:space="preserve">
<title>Untitled VisBOL Design</title>
<desc>Generated by the VisBOL design visualizer at http://visbol.org</desc>
<g id="SvgjsG1005" transform="matrix(1 0 0 1 16 16)"></g><g id="SvgjsG1242" transform="matrix(1 0 0 1 22 -268)"></g><g id="SvgjsG1479" transform="matrix(1 0 0 1 22 -268)"></g><g id="SvgjsG1526" transform="matrix(1 0 0 1 22 -268)"><g id="SvgjsG1524" transform="translate(10 300)"><g id="SvgjsG1495" transform="matrix(1 0 0 1 100 109.125)"><line id="SvgjsLine1494" x1="-48" y1="0" x2="224" y2="0" stroke="black" stroke-width="2px"></line><g id="SvgjsG1486" data-original-title="" title=""><g id="SvgjsG1481" transform="matrix(1 0 0 1 0 -38.4)" data-toggle="tooltip" data-placement="top" title="Component
Identifier: BBa_J23100
Name: BBa_J23100
Description: constitutive promoter family member
iGEM Part Type: Regulatory
Role: promoter
Orientation: inline
1..35
"><path id="SvgjsPath1480" d="M0 38.400001525878906L0 9.600000381469727L48 9.600000381469727L38.400001525878906 0M48 9.600000381469727L38.400001525878906 19.200000762939453 " stroke="#03c03c" stroke-width="5px" stroke-linejoin="round" fill="none"></path><rect id="SvgjsRect1482" width="48" height="38.4" fill-opacity="0" data-uri="https://synbiohub.org/public/igem/BBa_J23100/1"></rect></g><text id="SvgjsText1483" font-family="Helvetica, Arial, sans-serif" text-anchor="middle" transform="matrix(1 0 0 1 24 -54.4)"><tspan id="SvgjsTspan1484" dy="20.8" x="0"></tspan><tspan id="SvgjsTspan1485" alignment-baseline="middle">BBa_J23100</tspan></text></g><g id="SvgjsG1493" data-original-title="" title=""><g id="SvgjsG1488" transform="matrix(1 0 0 1 112 -38.4)" data-toggle="tooltip" data-placement="top" title="Component
Identifier: BBa_K1585999
Name: BBa_K1585999
Description: lacI binding site
Role: promoter
iGEM Part Type: Regulatory
Orientation: inline
44..78
"><path id="SvgjsPath1487" d="M0 38.400001525878906L0 9.600000381469727L48 9.600000381469727L38.400001525878906 0M48 9.600000381469727L38.400001525878906 19.200000762939453 " stroke="#03c03c" stroke-width="5px" stroke-linejoin="round" fill="none"></path><rect id="SvgjsRect1489" width="48" height="38.4" fill-opacity="0" data-uri="https://synbiohub.org/public/igem/BBa_K1585999/1"></rect></g><text id="SvgjsText1490" font-family="Helvetica, Arial, sans-serif" text-anchor="middle" transform="matrix(1 0 0 1 136 -54.4)"><tspan id="SvgjsTspan1491" dy="20.8" x="0"></tspan><tspan id="SvgjsTspan1492" alignment-baseline="middle">BBa_K1585999</tspan></text></g><text id="SvgjsText1496" font-family="Helvetica, Arial, sans-serif" text-anchor="left" transform="matrix(1 0 0 1 -100 -100)"><tspan id="SvgjsTspan1497" dy="20.8" x="0"></tspan><tspan id="SvgjsTspan1498" alignment-baseline="middle">BBa_K1585100</tspan></text></g><g id="SvgjsG1508" transform="matrix(1 0 0 1 100 266.25)"><line id="SvgjsLine1507" x1="-48" y1="0" x2="112" y2="0" stroke="black" stroke-width="2px"></line><g id="SvgjsG1506" data-original-title="" title=""><g id="SvgjsG1500" transform="matrix(1 0 0 1 0 -24.96)" data-toggle="tooltip" data-placement="top" title="Feature
Identifier: annotation2436909
Name: lacO/lacI-binding-site
iGEM Feature Type: operator
Role: operator
Orientation: inline
1..35
"><rect id="SvgjsRect1501" width="24" height="38.4" fill="#ffffff" x="12"></rect><path id="SvgjsPath1499" d="M12 11.520000457763672L12 38.400001525878906L36 38.400001525878906L36 11.520000457763672 " stroke="#000000" stroke-width="4px" stroke-linecap="round" stroke-linejoin="round" fill="none"></path><rect id="SvgjsRect1502" width="48" height="38.4" fill-opacity="0"></rect></g><text id="SvgjsText1503" font-family="Helvetica, Arial, sans-serif" text-anchor="middle" transform="matrix(1 0 0 1 24 -40.96)"><tspan id="SvgjsTspan1504" dy="20.8" x="0"></tspan><tspan id="SvgjsTspan1505" alignment-baseline="middle">lacO/lacI-bi...</tspan></text></g><text id="SvgjsText1509" font-family="Helvetica, Arial, sans-serif" text-anchor="left" transform="matrix(1 0 0 1 -100 -100)"><tspan id="SvgjsTspan1510" dy="20.8" x="0"></tspan><tspan id="SvgjsTspan1511" alignment-baseline="middle">BBa_K1585999</tspan></text></g><g id="SvgjsG1520" transform="matrix(1 0 0 1 100 436.81500244140625)"><line id="SvgjsLine1519" x1="-48" y1="0" x2="112" y2="0" stroke="black" stroke-width="2px"></line><g id="SvgjsG1518" data-original-title="" title=""><g id="SvgjsG1513" transform="matrix(1 0 0 1 0 -38.4)" data-toggle="tooltip" data-placement="top" title="Component
Identifier: BBa_J23100
Name: BBa_J23100
Description: constitutive promoter family member
iGEM Part Type: Regulatory
Role: promoter
"><path id="SvgjsPath1512" d="M0 38.400001525878906L0 9.600000381469727L48 9.600000381469727L38.400001525878906 0M48 9.600000381469727L38.400001525878906 19.200000762939453 " stroke="#03c03c" stroke-width="5px" stroke-linejoin="round" fill="none"></path><rect id="SvgjsRect1514" width="48" height="38.4" fill-opacity="0" data-uri="https://synbiohub.org/public/igem/BBa_J23100/1"></rect></g><text id="SvgjsText1515" font-family="Helvetica, Arial, sans-serif" text-anchor="middle" transform="matrix(1 0 0 1 24 -54.4)"><tspan id="SvgjsTspan1516" dy="20.8" x="0"></tspan><tspan id="SvgjsTspan1517" alignment-baseline="middle">BBa_J23100</tspan></text></g><text id="SvgjsText1521" font-family="Helvetica, Arial, sans-serif" text-anchor="left" transform="matrix(1 0 0 1 -100 -100)"><tspan id="SvgjsTspan1522" dy="20.8" x="0"></tspan><tspan id="SvgjsTspan1523" alignment-baseline="middle">BBa_J23100</tspan></text></g><rect id="SvgjsRect1525" width="356" height="468.81500244140625" transform="matrix(1 0 0 1 -16 -16)" rx="8" ry="8" stroke="black" stroke-width="2px" stroke-linejoin="round" fill="none"></rect></g></g><defs id="SvgjsDefs1000"></defs>
                        
</svg>