<?xml version="1.0" encoding="iso-8859-1"?>
<!DOCTYPE svg PUBLIC "-//W3C//DTD SVG 1.1//EN" "http://www.w3.org/Graphics/SVG/1.1/DTD/svg11.dtd">
<svg version="1.1" xmlns="http://www.w3.org/2000/svg" xmlns:xlink="http://www.w3.org/1999/xlink" x="0px" y="0px"
width="2516px" height="288.32501220703125px" viewBox="0 0 2516 288.32501220703125" xml:space="preserve">
<title>Untitled VisBOL Design</title>
<desc>Generated by the VisBOL design visualizer at http://visbol.org</desc>
<g id="SvgjsG1005" transform="matrix(1 0 0 1 16 16)"></g><g id="SvgjsG1242" transform="matrix(1 0 0 1 22 -268)"></g><g id="SvgjsG1479" transform="matrix(1 0 0 1 22 -268)"></g><g id="SvgjsG1628" transform="matrix(1 0 0 1 122 -158.875)"><g id="SvgjsG1626" transform="translate(10 300)"><g id="SvgjsG1622"><rect id="SvgjsRect1621" width="2400" height="115.19999999999999" fill="none" rx="10" ry="10" transform="matrix(1 0 0 1 -48 0)" stroke="black" stroke-width="2px"></rect><g id="SvgjsG1486" data-original-title="" title=""><g id="SvgjsG1482" transform="matrix(1 0 0 1 0 -24)" data-toggle="tooltip" data-placement="top" title="Feature
Identifier: annotation0
Name: synthetic DNA construct
Role: contig
Orientation: inline
1..2686
"><path id="SvgjsPath1480" d="M6 19.200000762939453L0 19.200000762939453L0 0L6 0M18 19.200000762939453L24 19.200000762939453L24 0L18 0 " stroke="black" stroke-width="5px" fill="none"></path><rect id="SvgjsRect1481" width="24" height="24" fill-opacity="0"></rect></g><text id="SvgjsText1483" font-family="Helvetica, Arial, sans-serif" text-anchor="middle" transform="matrix(1 0 0 1 12 -40)"><tspan id="SvgjsTspan1484" dy="20.8" x="0"></tspan><tspan id="SvgjsTspan1485" alignment-baseline="middle">synthetic DN...</tspan></text></g><g id="SvgjsG1493" data-original-title="" title=""><g id="SvgjsG1488" transform="matrix(-1 -1.2246467991473532e-16 1.2246467991473532e-16 -1 160 38.4)" data-toggle="tooltip" data-placement="top" title="Feature
Identifier: annotation1
Name: pGEX 3'
Role: primer_binding_site
Orientation: reverseComplement
29..51
"><path id="SvgjsPath1487" d="M0 28.799999237060547L48 28.799999237060547L28.799999237060547 15.359999656677246 " stroke="#000000" stroke-width="5px" stroke-linecap="round" stroke-linejoin="round" fill="none"></path><rect id="SvgjsRect1489" width="48" height="38.4" fill-opacity="0"></rect></g><text id="SvgjsText1490" font-family="Helvetica, Arial, sans-serif" text-anchor="middle" transform="matrix(1 0 0 1 136 54.4)"><tspan id="SvgjsTspan1491" dy="20.8" x="0"></tspan><tspan id="SvgjsTspan1492" alignment-baseline="middle">pGEX 3'</tspan></text></g><g id="SvgjsG1498" data-original-title="" title=""><path id="SvgjsPath1494" d="M0 0L33.599998474121094 0L48 14.399999618530273L33.599998474121094 28.799999237060547L0 28.799999237060547Z " stroke="black" fill="#779ecb" transform="matrix(-1 -1.2246467991473532e-16 1.2246467991473532e-16 -1 272 14.399999999999999)" data-toggle="tooltip" data-placement="top" title="Feature
Identifier: annotation2
Name: lacZ-alpha
Role: CDS
Orientation: reverseComplement
146..469
"></path><text id="SvgjsText1495" font-family="Helvetica, Arial, sans-serif" text-anchor="middle" transform="matrix(1 0 0 1 248 30.4)"><tspan id="SvgjsTspan1496" dy="20.8" x="0"></tspan><tspan id="SvgjsTspan1497" alignment-baseline="middle">lacZ-alpha</tspan></text></g><g id="SvgjsG1505" data-original-title="" title=""><g id="SvgjsG1500" transform="matrix(1 0 0 1 336 -38.4)" data-toggle="tooltip" data-placement="top" title="Feature
Identifier: annotation3
Name: pRS-marker
Role: primer_binding_site
Orientation: inline
151..170
"><path id="SvgjsPath1499" d="M0 28.799999237060547L48 28.799999237060547L28.799999237060547 15.359999656677246 " stroke="#000000" stroke-width="5px" stroke-linecap="round" stroke-linejoin="round" fill="none"></path><rect id="SvgjsRect1501" width="48" height="38.4" fill-opacity="0"></rect></g><text id="SvgjsText1502" font-family="Helvetica, Arial, sans-serif" text-anchor="middle" transform="matrix(1 0 0 1 360 -54.4)"><tspan id="SvgjsTspan1503" dy="20.8" x="0"></tspan><tspan id="SvgjsTspan1504" alignment-baseline="middle">pRS-marker</tspan></text></g><g id="SvgjsG1512" data-original-title="" title=""><g id="SvgjsG1507" transform="matrix(1 0 0 1 448 -38.4)" data-toggle="tooltip" data-placement="top" title="Feature
Identifier: annotation4
Name: M13/pUC Forward
Role: primer_binding_site
Orientation: inline
364..386
"><path id="SvgjsPath1506" d="M0 28.799999237060547L48 28.799999237060547L28.799999237060547 15.359999656677246 " stroke="#000000" stroke-width="5px" stroke-linecap="round" stroke-linejoin="round" fill="none"></path><rect id="SvgjsRect1508" width="48" height="38.4" fill-opacity="0"></rect></g><text id="SvgjsText1509" font-family="Helvetica, Arial, sans-serif" text-anchor="middle" transform="matrix(1 0 0 1 472 -54.4)"><tspan id="SvgjsTspan1510" dy="20.8" x="0"></tspan><tspan id="SvgjsTspan1511" alignment-baseline="middle">M13/pUC Forw...</tspan></text></g><g id="SvgjsG1519" data-original-title="" title=""><g id="SvgjsG1514" transform="matrix(1 0 0 1 560 -38.4)" data-toggle="tooltip" data-placement="top" title="Feature
Identifier: annotation5
Name: M13 Forward
Role: primer_binding_site
Orientation: inline
378..395
"><path id="SvgjsPath1513" d="M0 28.799999237060547L48 28.799999237060547L28.799999237060547 15.359999656677246 " stroke="#000000" stroke-width="5px" stroke-linecap="round" stroke-linejoin="round" fill="none"></path><rect id="SvgjsRect1515" width="48" height="38.4" fill-opacity="0"></rect></g><text id="SvgjsText1516" font-family="Helvetica, Arial, sans-serif" text-anchor="middle" transform="matrix(1 0 0 1 584 -54.4)"><tspan id="SvgjsTspan1517" dy="20.8" x="0"></tspan><tspan id="SvgjsTspan1518" alignment-baseline="middle">M13 Forward</tspan></text></g><g id="SvgjsG1526" data-original-title="" title=""><g id="SvgjsG1521" transform="matrix(1 0 0 1 672 -38.4)" data-toggle="tooltip" data-placement="top" title="Feature
Identifier: annotation6
Name: M13 fwd
Role: primer_binding_site
Orientation: inline
379..395
"><path id="SvgjsPath1520" d="M0 28.799999237060547L48 28.799999237060547L28.799999237060547 15.359999656677246 " stroke="#000000" stroke-width="5px" stroke-linecap="round" stroke-linejoin="round" fill="none"></path><rect id="SvgjsRect1522" width="48" height="38.4" fill-opacity="0"></rect></g><text id="SvgjsText1523" font-family="Helvetica, Arial, sans-serif" text-anchor="middle" transform="matrix(1 0 0 1 696 -54.4)"><tspan id="SvgjsTspan1524" dy="20.8" x="0"></tspan><tspan id="SvgjsTspan1525" alignment-baseline="middle">M13 fwd</tspan></text></g><g id="SvgjsG1533" data-original-title="" title=""><g id="SvgjsG1529" transform="matrix(1 0 0 1 784 -24)" data-toggle="tooltip" data-placement="top" title="Feature
Identifier: annotation7
Name: MCS
Role: region
Orientation: inline
399..455
"><path id="SvgjsPath1527" d="M6 19.200000762939453L0 19.200000762939453L0 0L6 0M18 19.200000762939453L24 19.200000762939453L24 0L18 0 " stroke="black" stroke-width="5px" fill="none"></path><rect id="SvgjsRect1528" width="24" height="24" fill-opacity="0"></rect></g><text id="SvgjsText1530" font-family="Helvetica, Arial, sans-serif" text-anchor="middle" transform="matrix(1 0 0 1 796 -40)"><tspan id="SvgjsTspan1531" dy="20.8" x="0"></tspan><tspan id="SvgjsTspan1532" alignment-baseline="middle">MCS</tspan></text></g><g id="SvgjsG1540" data-original-title="" title=""><g id="SvgjsG1535" transform="matrix(-1 -1.2246467991473532e-16 1.2246467991473532e-16 -1 944 38.4)" data-toggle="tooltip" data-placement="top" title="Feature
Identifier: annotation8
Name: M13 rev
Role: primer_binding_site
Orientation: reverseComplement
465..481
"><path id="SvgjsPath1534" d="M0 28.799999237060547L48 28.799999237060547L28.799999237060547 15.359999656677246 " stroke="#000000" stroke-width="5px" stroke-linecap="round" stroke-linejoin="round" fill="none"></path><rect id="SvgjsRect1536" width="48" height="38.4" fill-opacity="0"></rect></g><text id="SvgjsText1537" font-family="Helvetica, Arial, sans-serif" text-anchor="middle" transform="matrix(1 0 0 1 920 54.4)"><tspan id="SvgjsTspan1538" dy="20.8" x="0"></tspan><tspan id="SvgjsTspan1539" alignment-baseline="middle">M13 rev</tspan></text></g><g id="SvgjsG1547" data-original-title="" title=""><g id="SvgjsG1542" transform="matrix(-1 -1.2246467991473532e-16 1.2246467991473532e-16 -1 1056 38.4)" data-toggle="tooltip" data-placement="top" title="Feature
Identifier: annotation9
Name: M13 Reverse
Role: primer_binding_site
Orientation: reverseComplement
465..481
"><path id="SvgjsPath1541" d="M0 28.799999237060547L48 28.799999237060547L28.799999237060547 15.359999656677246 " stroke="#000000" stroke-width="5px" stroke-linecap="round" stroke-linejoin="round" fill="none"></path><rect id="SvgjsRect1543" width="48" height="38.4" fill-opacity="0"></rect></g><text id="SvgjsText1544" font-family="Helvetica, Arial, sans-serif" text-anchor="middle" transform="matrix(1 0 0 1 1032 54.4)"><tspan id="SvgjsTspan1545" dy="20.8" x="0"></tspan><tspan id="SvgjsTspan1546" alignment-baseline="middle">M13 Reverse</tspan></text></g><g id="SvgjsG1554" data-original-title="" title=""><g id="SvgjsG1549" transform="matrix(-1 -1.2246467991473532e-16 1.2246467991473532e-16 -1 1168 38.4)" data-toggle="tooltip" data-placement="top" title="Feature
Identifier: annotation10
Name: M13/pUC Reverse
Role: primer_binding_site
Orientation: reverseComplement
478..500
"><path id="SvgjsPath1548" d="M0 28.799999237060547L48 28.799999237060547L28.799999237060547 15.359999656677246 " stroke="#000000" stroke-width="5px" stroke-linecap="round" stroke-linejoin="round" fill="none"></path><rect id="SvgjsRect1550" width="48" height="38.4" fill-opacity="0"></rect></g><text id="SvgjsText1551" font-family="Helvetica, Arial, sans-serif" text-anchor="middle" transform="matrix(1 0 0 1 1144 54.4)"><tspan id="SvgjsTspan1552" dy="20.8" x="0"></tspan><tspan id="SvgjsTspan1553" alignment-baseline="middle">M13/pUC Reve...</tspan></text></g><g id="SvgjsG1561" data-original-title="" title=""><g id="SvgjsG1557" transform="matrix(1 0 0 1 1232 -24)" data-toggle="tooltip" data-placement="top" title="Feature
Identifier: annotation11
Name: lac operator
Role: protein_binding_site
Orientation: inline
489..505
"><path id="SvgjsPath1555" d="M6 19.200000762939453L0 19.200000762939453L0 0L6 0M18 19.200000762939453L24 19.200000762939453L24 0L18 0 " stroke="black" stroke-width="5px" fill="none"></path><rect id="SvgjsRect1556" width="24" height="24" fill-opacity="0"></rect></g><text id="SvgjsText1558" font-family="Helvetica, Arial, sans-serif" text-anchor="middle" transform="matrix(1 0 0 1 1244 -40)"><tspan id="SvgjsTspan1559" dy="20.8" x="0"></tspan><tspan id="SvgjsTspan1560" alignment-baseline="middle">lac operator</tspan></text></g><g id="SvgjsG1568" data-original-title="" title=""><g id="SvgjsG1563" transform="matrix(-1 -1.2246467991473532e-16 1.2246467991473532e-16 -1 1392 38.4)" data-toggle="tooltip" data-placement="top" title="Feature
Identifier: annotation12
Name: lac promoter
Role: promoter
Orientation: reverseComplement
513..543
"><path id="SvgjsPath1562" d="M0 38.400001525878906L0 9.600000381469727L48 9.600000381469727L38.400001525878906 0M48 9.600000381469727L38.400001525878906 19.200000762939453 " stroke="#03c03c" stroke-width="5px" stroke-linejoin="round" fill="none"></path><rect id="SvgjsRect1564" width="48" height="38.4" fill-opacity="0"></rect></g><text id="SvgjsText1565" font-family="Helvetica, Arial, sans-serif" text-anchor="middle" transform="matrix(1 0 0 1 1368 54.4)"><tspan id="SvgjsTspan1566" dy="20.8" x="0"></tspan><tspan id="SvgjsTspan1567" alignment-baseline="middle">lac promoter</tspan></text></g><g id="SvgjsG1575" data-original-title="" title=""><g id="SvgjsG1571" transform="matrix(1 0 0 1 1456 -24)" data-toggle="tooltip" data-placement="top" title="Feature
Identifier: annotation13
Name: CAP binding site
Role: protein_binding_site
Orientation: inline
558..579
"><path id="SvgjsPath1569" d="M6 19.200000762939453L0 19.200000762939453L0 0L6 0M18 19.200000762939453L24 19.200000762939453L24 0L18 0 " stroke="black" stroke-width="5px" fill="none"></path><rect id="SvgjsRect1570" width="24" height="24" fill-opacity="0"></rect></g><text id="SvgjsText1572" font-family="Helvetica, Arial, sans-serif" text-anchor="middle" transform="matrix(1 0 0 1 1468 -40)"><tspan id="SvgjsTspan1573" dy="20.8" x="0"></tspan><tspan id="SvgjsTspan1574" alignment-baseline="middle">CAP binding ...</tspan></text></g><g id="SvgjsG1582" data-original-title="" title=""><g id="SvgjsG1577" transform="matrix(-1 -1.2246467991473532e-16 1.2246467991473532e-16 -1 1616 38.4)" data-toggle="tooltip" data-placement="top" title="Feature
Identifier: annotation14
Name: L4440
Role: primer_binding_site
Orientation: reverseComplement
696..713
"><path id="SvgjsPath1576" d="M0 28.799999237060547L48 28.799999237060547L28.799999237060547 15.359999656677246 " stroke="#000000" stroke-width="5px" stroke-linecap="round" stroke-linejoin="round" fill="none"></path><rect id="SvgjsRect1578" width="48" height="38.4" fill-opacity="0"></rect></g><text id="SvgjsText1579" font-family="Helvetica, Arial, sans-serif" text-anchor="middle" transform="matrix(1 0 0 1 1592 54.4)"><tspan id="SvgjsTspan1580" dy="20.8" x="0"></tspan><tspan id="SvgjsTspan1581" alignment-baseline="middle">L4440</tspan></text></g><g id="SvgjsG1587" data-original-title="" title=""><ellipse id="SvgjsEllipse1583" rx="24" ry="24" cx="24" cy="24" stroke="black" fill="#cceeee" stroke-width="5px" transform="matrix(-1 -1.2246467991473532e-16 1.2246467991473532e-16 -1 1728 24)" data-toggle="tooltip" data-placement="top" title="Feature
Identifier: annotation15
Name: ori
Role: origin_of_replication
Orientation: reverseComplement
867..1455
"></ellipse><text id="SvgjsText1584" font-family="Helvetica, Arial, sans-serif" text-anchor="middle" transform="matrix(1 0 0 1 1704 40)"><tspan id="SvgjsTspan1585" dy="20.8" x="0"></tspan><tspan id="SvgjsTspan1586" alignment-baseline="middle">ori</tspan></text></g><g id="SvgjsG1594" data-original-title="" title=""><g id="SvgjsG1589" transform="matrix(-1 -1.2246467991473532e-16 1.2246467991473532e-16 -1 1840 38.4)" data-toggle="tooltip" data-placement="top" title="Feature
Identifier: annotation16
Name: pBR322ori-F
Role: primer_binding_site
Orientation: reverseComplement
947..966
"><path id="SvgjsPath1588" d="M0 28.799999237060547L48 28.799999237060547L28.799999237060547 15.359999656677246 " stroke="#000000" stroke-width="5px" stroke-linecap="round" stroke-linejoin="round" fill="none"></path><rect id="SvgjsRect1590" width="48" height="38.4" fill-opacity="0"></rect></g><text id="SvgjsText1591" font-family="Helvetica, Arial, sans-serif" text-anchor="middle" transform="matrix(1 0 0 1 1816 54.4)"><tspan id="SvgjsTspan1592" dy="20.8" x="0"></tspan><tspan id="SvgjsTspan1593" alignment-baseline="middle">pBR322ori-F</tspan></text></g><g id="SvgjsG1599" data-original-title="" title=""><path id="SvgjsPath1595" d="M0 0L33.599998474121094 0L48 14.399999618530273L33.599998474121094 28.799999237060547L0 28.799999237060547Z " stroke="black" fill="#779ecb" transform="matrix(-1 -1.2246467991473532e-16 1.2246467991473532e-16 -1 1952 14.399999999999999)" data-toggle="tooltip" data-placement="top" title="Feature
Identifier: annotation17
Name: AmpR
Role: CDS
Orientation: reverseComplement
1626..2486
"></path><text id="SvgjsText1596" font-family="Helvetica, Arial, sans-serif" text-anchor="middle" transform="matrix(1 0 0 1 1928 30.4)"><tspan id="SvgjsTspan1597" dy="20.8" x="0"></tspan><tspan id="SvgjsTspan1598" alignment-baseline="middle">AmpR</tspan></text></g><g id="SvgjsG1606" data-original-title="" title=""><g id="SvgjsG1601" transform="matrix(1 0 0 1 2016 -38.4)" data-toggle="tooltip" data-placement="top" title="Feature
Identifier: annotation18
Name: Amp-R
Role: primer_binding_site
Orientation: inline
2249..2268
"><path id="SvgjsPath1600" d="M0 28.799999237060547L48 28.799999237060547L28.799999237060547 15.359999656677246 " stroke="#000000" stroke-width="5px" stroke-linecap="round" stroke-linejoin="round" fill="none"></path><rect id="SvgjsRect1602" width="48" height="38.4" fill-opacity="0"></rect></g><text id="SvgjsText1603" font-family="Helvetica, Arial, sans-serif" text-anchor="middle" transform="matrix(1 0 0 1 2040 -54.4)"><tspan id="SvgjsTspan1604" dy="20.8" x="0"></tspan><tspan id="SvgjsTspan1605" alignment-baseline="middle">Amp-R</tspan></text></g><g id="SvgjsG1613" data-original-title="" title=""><g id="SvgjsG1608" transform="matrix(-1 -1.2246467991473532e-16 1.2246467991473532e-16 -1 2176 38.4)" data-toggle="tooltip" data-placement="top" title="Feature
Identifier: annotation19
Name: AmpR promoter
Role: promoter
Orientation: reverseComplement
2487..2591
"><path id="SvgjsPath1607" d="M0 38.400001525878906L0 9.600000381469727L48 9.600000381469727L38.400001525878906 0M48 9.600000381469727L38.400001525878906 19.200000762939453 " stroke="#03c03c" stroke-width="5px" stroke-linejoin="round" fill="none"></path><rect id="SvgjsRect1609" width="48" height="38.4" fill-opacity="0"></rect></g><text id="SvgjsText1610" font-family="Helvetica, Arial, sans-serif" text-anchor="middle" transform="matrix(1 0 0 1 2152 54.4)"><tspan id="SvgjsTspan1611" dy="20.8" x="0"></tspan><tspan id="SvgjsTspan1612" alignment-baseline="middle">AmpR promote...</tspan></text></g><g id="SvgjsG1620" data-original-title="" title=""><g id="SvgjsG1615" transform="matrix(1 0 0 1 2240 -38.4)" data-toggle="tooltip" data-placement="top" title="Feature
Identifier: annotation20
Name: pBRforEco
Role: primer_binding_site
Orientation: inline
2659..2677
"><path id="SvgjsPath1614" d="M0 28.799999237060547L48 28.799999237060547L28.799999237060547 15.359999656677246 " stroke="#000000" stroke-width="5px" stroke-linecap="round" stroke-linejoin="round" fill="none"></path><rect id="SvgjsRect1616" width="48" height="38.4" fill-opacity="0"></rect></g><text id="SvgjsText1617" font-family="Helvetica, Arial, sans-serif" text-anchor="middle" transform="matrix(1 0 0 1 2264 -54.4)"><tspan id="SvgjsTspan1618" dy="20.8" x="0"></tspan><tspan id="SvgjsTspan1619" alignment-baseline="middle">pBRforEco</tspan></text></g><text id="SvgjsText1623" font-family="Helvetica, Arial, sans-serif" text-anchor="left" transform="matrix(1 0 0 1 -100 -100)"><tspan id="SvgjsTspan1624" dy="20.8" x="0"></tspan><tspan id="SvgjsTspan1625" alignment-baseline="middle">Exported</tspan></text></g><rect id="SvgjsRect1627" width="2484" height="256.32501220703125" transform="matrix(1 0 0 1 -116 -125.125)" rx="8" ry="8" stroke="black" stroke-width="2px" stroke-linejoin="round" fill="none"></rect></g></g><defs id="SvgjsDefs1000"></defs>
                        
</svg>